<?xml version="1.0" encoding="utf-8"?>
<svg version="1.1" id="GraphQL_Logo" x="0px" y="0px" viewBox="0 0 300 300" enable-background="new 0 0 400 400" xmlns="http://www.w3.org/2000/svg">
  <g transform="matrix(1, 0, 0, 1, -50, -45.739182)">
    <g transform="matrix(0.999019, 0.044291, -0.044291, 0.999019, -0.797872, -7.70899)">
      <rect x="122.097" y="-5.741" transform="matrix(0.998842, -0.048116, -0.048116, -0.998842, 154.646173, 164.062414)" width="16.6" height="81.7" style="fill: rgb(56, 13, 9);"/>
      <rect x="-122.097" y="5.741" transform="matrix(0.998842, -0.048116, -0.048116, -0.998842, 253.190271, 308.243753)" width="16.6" height="81.7" style="fill: rgb(56, 13, 9);"/>
      <rect x="122.097" y="-5.741" transform="matrix(0.998842, -0.048116, -0.048116, -0.998842, 159.789117, 257.589987)" width="16.6" height="81.7" style="fill: rgb(56, 13, 9);"/>
      <rect x="122.097" y="-5.741" transform="matrix(0.998842, -0.048116, -0.048116, -0.998842, 3.603738, 213.93453)" width="16.6" height="81.7" style="fill: rgb(56, 13, 9);"/>
      <rect x="-122.097" y="13" transform="matrix(0.235579, -0.971855, -0.971855, -0.235579, 336.28456, 63.308019)" width="16.6" height="184.996" style="fill: rgb(56, 13, 9);"/>
      <g transform="matrix(0.980622, 0.195911, -0.195911, 0.980622, 91.741982, -1.457608)">
        <title>top</title>
        <g>
          <g transform="matrix(1, 0, 0, 1, 1.941964, -0.478302)">
            <rect x="122.1" y="-13" transform="matrix(-0.5 -0.866 0.866 -0.5 126.7903 232.1221)" width="16.6" height="185" style="fill: rgb(229, 53, 171);"/>
          </g>
        </g>
        <path d="M 200 66.658 C 184.76 66.658 172.442 54.34 172.442 39.1 C 172.442 23.86 184.76 11.542 200 11.542 C 215.24 11.542 227.558 23.86 227.558 39.1 C 227.558 54.34 215.24 66.658 200 66.658" style="fill: rgb(229, 53, 171);"/>
        <path d="M 60.795 146.473 C 45.555 146.473 33.237 134.155 33.237 118.915 C 33.237 103.675 45.555 91.357 60.795 91.357 C 76.035 91.357 88.353 103.675 88.353 118.915 C 88.353 134.155 76.035 146.473 60.795 146.473" style="fill: rgb(229, 53, 171);"/>
      </g>
      <rect x="122.097" y="-13" transform="matrix(0.235579, -0.971855, -0.971855, -0.235579, 258.899827, 386.973674)" width="16.6" height="184.996" style="fill: rgb(56, 13, 9);"/>
      <g transform="matrix(0.980622, 0.195911, -0.195911, 0.980622, 97.033096, 91.072594)">
        <title>top</title>
        <g>
          <g transform="matrix(1, 0, 0, 1, 1.941964, -0.478302)">
            <rect x="122.1" y="-13" transform="matrix(-0.5 -0.866 0.866 -0.5 126.7903 232.1221)" width="16.6" height="185" style="fill: rgb(229, 53, 171);"/>
          </g>
        </g>
        <path d="M 200 66.658 C 184.76 66.658 172.442 54.34 172.442 39.1 C 172.442 23.86 184.76 11.542 200 11.542 C 215.24 11.542 227.558 23.86 227.558 39.1 C 227.558 54.34 215.24 66.658 200 66.658" style="fill: rgb(229, 53, 171);"/>
        <path d="M 60.795 146.473 C 45.555 146.473 33.237 134.155 33.237 118.915 C 33.237 103.675 45.555 91.357 60.795 91.357 C 76.035 91.357 88.353 103.675 88.353 118.915 C 88.353 134.155 76.035 146.473 60.795 146.473" style="fill: rgb(229, 53, 171);"/>
      </g>
      <g transform="matrix(0.980622, 0.195911, -0.195911, 0.980622, 102.696907, 184.121841)">
        <title>top</title>
        <g>
          <g transform="matrix(1, 0, 0, 1, 1.941964, -0.478302)">
            <rect x="122.1" y="-13" transform="matrix(-0.5 -0.866 0.866 -0.5 126.7903 232.1221)" width="16.6" height="185" style="fill: rgb(229, 53, 171);"/>
          </g>
        </g>
        <path d="M 200 66.658 C 184.76 66.658 172.442 54.34 172.442 39.1 C 172.442 23.86 184.76 11.542 200 11.542 C 215.24 11.542 227.558 23.86 227.558 39.1 C 227.558 54.34 215.24 66.658 200 66.658" style="fill: rgb(229, 53, 171);"/>
        <path d="M 60.795 146.473 C 45.555 146.473 33.237 134.155 33.237 118.915 C 33.237 103.675 45.555 91.357 60.795 91.357 C 76.035 91.357 88.353 103.675 88.353 118.915 C 88.353 134.155 76.035 146.473 60.795 146.473" style="fill: rgb(229, 53, 171);"/>
      </g>
    </g>
  </g>
</svg>